<?xml version="1.0" standalone="no"?><!DOCTYPE svg PUBLIC "-//W3C//DTD SVG 1.1//EN" "http://www.w3.org/Graphics/SVG/1.1/DTD/svg11.dtd"><svg xmlns:xlink="http://www.w3.org/1999/xlink" version="1.1" style="font-family:'lucida grande', 'lucida sans unicode', arial, helvetica, sans-serif;font-size:12px;" xmlns="http://www.w3.org/2000/svg" width="600" height="400"><desc>Created with Highcharts 4.2.0</desc><defs><clipPath id="highcharts-4"><rect x="0" y="0" width="580" height="290"></rect></clipPath></defs><g class="highcharts-series-group" ><g class="highcharts-series highcharts-series-0"  transform="translate(10,36) scale(1 1)"><path fill="#50B432" d="M 289.9753555423529 10.00000250970784 A 121 121 0 0 1 408.8453049604219 108.26690762645106 L 290 131 A 0 0 0 0 0 290 131 Z" stroke="#FFFFFF" stroke-width="1" stroke-linejoin="round" transform="translate(0,0)"></path><path fill="#ED561B" d="M 408.8679786263591 108.38576427814917 A 121 121 0 0 1 392.2599548565595 195.6830861410803 L 290 131 A 0 0 0 0 0 290 131 Z" stroke="#FFFFFF" stroke-width="1" stroke-linejoin="round" transform="translate(0,0)"></path><path fill="#DDDF00" d="M 392.1952206512257 195.7853137373532 A 121 121 0 0 1 341.62583675954903 240.43387491483793 L 290 131 A 0 0 0 0 0 290 131 Z" stroke="#FFFFFF" stroke-width="1" stroke-linejoin="round" transform="translate(0,0)"></path><path fill="#24CBE5" d="M 341.51637708995696 240.4854460260603 A 121 121 0 0 1 282.4782084069821 251.76598300527846 L 290 131 A 0 0 0 0 0 290 131 Z" stroke="#FFFFFF" stroke-width="1" stroke-linejoin="round" transform="translate(0,0)"></path><path fill="#64E572" d="M 282.35744620500003 251.7584008319526 A 121 121 0 0 1 225.29608758792122 233.2467785241669 L 290 131 A 0 0 0 0 0 290 131 Z" stroke="#FFFFFF" stroke-width="1" stroke-linejoin="round" transform="translate(0,0)"></path><path fill="#FF9655" d="M 225.1938731783917 233.1820234991538 A 121 121 0 0 1 289.8319334274933 10.000116720605021 L 290 131 A 0 0 0 0 0 290 131 Z" stroke="#FFFFFF" stroke-width="1" stroke-linejoin="round" transform="translate(0,0)"></path></g><g class="highcharts-markers highcharts-series-0"  transform="translate(10,36) scale(1 1)"></g></g><text x="300" text-anchor="middle" class="highcharts-title"  style="color:#000000;font-size:10px;font-family:'arial', sans-serif;fill:#000000;width:536px;" y="17"><tspan>State 9</tspan></text><g class="highcharts-data-labels highcharts-series-0"  visibility="visible" transform="translate(10,36) scale(1 1)" opacity="1"><path fill="none" d="M 391.2510224520522 14.652500340855859 C 386.2510224520522 14.652500340855859 381.15163053406275 20.81660628306217 374.13996664682713 29.29225195359585 L 367.1283027595915 37.76789762412953" stroke="#50B432" stroke-width="1"></path><path fill="none" d="M 443.32537486003196 159.2945785024445 C 438.32537486003196 159.2945785024445 430.46707685420245 157.7955279857587 419.66191709618687 155.73433352531572 L 408.8567573381713 153.67313906487274" stroke="#ED561B" stroke-width="1"></path><path fill="none" d="M 394.8580916638714 244.26677151419943 C 389.8580916638714 244.26677151419943 384.56759674128216 238.26588295715578 377.293166222722 230.0146611912207 L 370.0187357041618 221.76343942528564" stroke="#DDDF00" stroke-width="1"></path><path fill="none" d="M 323.2945785024443 279.325374860032 C 318.2945785024443 279.325374860032 316.7955279857585 271.4670768542025 314.73433352531555 260.6619170961869 L 312.6731390648726 249.85675733817135" stroke="#24CBE5" stroke-width="1"></path><path fill="none" d="M 238.33843384938285 274.60953396056817 C 243.33843384938285 274.60953396056817 245.81056980438248 267.0010818302069 249.2097567425069 256.5394601509602 L 252.6089436806313 246.07783847171356" stroke="#64E572" stroke-width="1"></path><path fill="none" d="M 139.99565346278163 88.87234298807624 C 144.99565346278163 88.87234298807624 152.67800294819716 91.1042718363901 163.24123349064354 94.17317400282163 L 173.8044640330899 97.24207616925315" stroke="#FF9655" stroke-width="1"></path><g  style="cursor:pointer;" transform="translate(396,5)"><text x="5"  style="font-size:10px;font-weight:bold;font-family:'arial', sans-serif;color:#000000;text-shadow:0 0 6px #ffffff, 0 0 3px #ffffff;fill:#000000;text-rendering:geometricprecision;" y="15"><tspan>Conjunction : 0.22 </tspan></text></g><g  style="cursor:pointer;" transform="translate(448,149)"><text x="5"  style="font-size:10px;font-weight:bold;font-family:'arial', sans-serif;color:#000000;text-shadow:0 0 6px #ffffff, 0 0 3px #ffffff;fill:#000000;text-rendering:geometricprecision;" y="15"><tspan>Singular Noun : 0.12 </tspan></text></g><g  style="cursor:pointer;" transform="translate(400,234)"><text x="5"  style="font-size:10px;font-weight:bold;font-family:'arial', sans-serif;color:#000000;text-shadow:0 0 6px #ffffff, 0 0 3px #ffffff;fill:#000000;text-rendering:geometricprecision;" y="15"><tspan>WH-determiner : 0.09 </tspan></text></g><g  style="cursor:pointer;" transform="translate(328,269)"><text x="5"  style="font-size:10px;font-weight:bold;font-family:'arial', sans-serif;color:#000000;text-shadow:0 0 6px #ffffff, 0 0 3px #ffffff;fill:#000000;text-rendering:geometricprecision;" y="15"><tspan>Preposition : 0.08 </tspan></text></g><g  style="cursor:pointer;" transform="translate(105,265)"><text x="5"  style="font-size:10px;font-weight:bold;font-family:'arial', sans-serif;color:#000000;text-shadow:0 0 6px #ffffff, 0 0 3px #ffffff;fill:#000000;text-rendering:geometricprecision;" y="15"><tspan>Genetitive marker : 0.08 </tspan></text></g><g  style="cursor:pointer;" transform="translate(68,79)"><text x="5"  style="font-size:10px;font-weight:bold;font-family:'arial', sans-serif;color:#000000;text-shadow:0 0 6px #ffffff, 0 0 3px #ffffff;fill:#000000;text-rendering:geometricprecision;" y="15"><tspan>Other : 0.41 </tspan></text></g></g><g class="highcharts-legend"  transform="translate(65,338)"><g ><g><g class="highcharts-legend-item"  transform="translate(8,3)"><text x="21" style="color:#333;font-size:9pt;font-weight:normal;cursor:pointer;font-family:'lucida grande','lucida sans unicode',arial,helvetica,sans-serif;text-transform:none;fill:#333;" text-anchor="start"  y="15">Conjunction</text><rect x="0" y="4" width="16" height="12"  fill="#50B432"></rect></g><g class="highcharts-legend-item"  transform="translate(119.578125,3)"><text x="21" y="15" style="color:#333;font-size:9pt;font-weight:normal;cursor:pointer;font-family:'lucida grande','lucida sans unicode',arial,helvetica,sans-serif;text-transform:none;fill:#333;" text-anchor="start" ><tspan>Singular Noun</tspan></text><rect x="0" y="4" width="16" height="12"  fill="#ED561B"></rect></g><g class="highcharts-legend-item"  transform="translate(242.8125,3)"><text x="21" y="15" style="color:#333;font-size:9pt;font-weight:normal;cursor:pointer;font-family:'lucida grande','lucida sans unicode',arial,helvetica,sans-serif;text-transform:none;fill:#333;" text-anchor="start" >WH-determiner</text><rect x="0" y="4" width="16" height="12"  fill="#DDDF00"></rect></g><g class="highcharts-legend-item"  transform="translate(375.359375,3)"><text x="21" y="15" style="color:#333;font-size:9pt;font-weight:normal;cursor:pointer;font-family:'lucida grande','lucida sans unicode',arial,helvetica,sans-serif;text-transform:none;fill:#333;" text-anchor="start" >Preposition</text><rect x="0" y="4" width="16" height="12"  fill="#24CBE5"></rect></g><g class="highcharts-legend-item"  transform="translate(8,21)"><text x="21" y="15" style="color:#333;font-size:9pt;font-weight:normal;cursor:pointer;font-family:'lucida grande','lucida sans unicode',arial,helvetica,sans-serif;text-transform:none;fill:#333;" text-anchor="start" ><tspan>Genetitive marker</tspan></text><rect x="0" y="4" width="16" height="12"  fill="#64E572"></rect></g><g class="highcharts-legend-item"  transform="translate(153.125,21)"><text x="21" y="15" style="color:#333;font-size:9pt;font-weight:normal;cursor:pointer;font-family:'lucida grande','lucida sans unicode',arial,helvetica,sans-serif;text-transform:none;fill:#333;" text-anchor="start" >Other</text><rect x="0" y="4" width="16" height="12"  fill="#FF9655"></rect></g></g></g></g><g class="highcharts-tooltip"  style="cursor:default;padding:0;pointer-events:none;white-space:nowrap;" transform="translate(0,-9999)"><path fill="none" d="M 3.5 0.5 L 13.5 0.5 C 16.5 0.5 16.5 0.5 16.5 3.5 L 16.5 13.5 C 16.5 16.5 16.5 16.5 13.5 16.5 L 3.5 16.5 C 0.5 16.5 0.5 16.5 0.5 13.5 L 0.5 3.5 C 0.5 0.5 0.5 0.5 3.5 0.5"  stroke="black" stroke-opacity="0.049999999999999996" stroke-width="5" transform="translate(1, 1)"></path><path fill="none" d="M 3.5 0.5 L 13.5 0.5 C 16.5 0.5 16.5 0.5 16.5 3.5 L 16.5 13.5 C 16.5 16.5 16.5 16.5 13.5 16.5 L 3.5 16.5 C 0.5 16.5 0.5 16.5 0.5 13.5 L 0.5 3.5 C 0.5 0.5 0.5 0.5 3.5 0.5"  stroke="black" stroke-opacity="0.09999999999999999" stroke-width="3" transform="translate(1, 1)"></path><path fill="none" d="M 3.5 0.5 L 13.5 0.5 C 16.5 0.5 16.5 0.5 16.5 3.5 L 16.5 13.5 C 16.5 16.5 16.5 16.5 13.5 16.5 L 3.5 16.5 C 0.5 16.5 0.5 16.5 0.5 13.5 L 0.5 3.5 C 0.5 0.5 0.5 0.5 3.5 0.5"  stroke="black" stroke-opacity="0.15" stroke-width="1" transform="translate(1, 1)"></path><path fill="rgb(249, 249, 249)" fill-opacity=" .85" d="M 3.5 0.5 L 13.5 0.5 C 16.5 0.5 16.5 0.5 16.5 3.5 L 16.5 13.5 C 16.5 16.5 16.5 16.5 13.5 16.5 L 3.5 16.5 C 0.5 16.5 0.5 16.5 0.5 13.5 L 0.5 3.5 C 0.5 0.5 0.5 0.5 3.5 0.5"></path><text x="8"  style="font-size:12px;color:#000000;fill:#000000;" y="20"></text></g><text x="590" text-anchor="end"  style="cursor:pointer;color:#909090;font-size:9px;fill:#909090;" y="395">meta-chart.com</text></svg>